<svg width="24" height="24" viewBox="0 0 24 24" fill="none" xmlns="http://www.w3.org/2000/svg">
<path fill-rule="evenodd" clip-rule="evenodd" d="M19.3139 2.70708C18.9234 2.31655 18.2902 2.31655 17.8997 2.70708L16.4855 4.12129L20.021 7.65683L21.4352 6.24261C21.8257 5.85209 21.8257 5.21892 21.4352 4.8284L19.3139 2.70708ZM7 5C5.89543 5 5 5.89543 5 7V17C5 18.1046 5.89543 19 7 19H17C18.1046 19 19 18.1046 19 17V12C19 11.4477 19.4477 11 20 11C20.5523 11 21 11.4477 21 12V17C21 19.2091 19.2091 21 17 21H7C4.79086 21 3 19.2091 3 17V7C3 4.79086 4.79086 3 7 3H12C12.5523 3 13 3.44772 13 4C13 4.55229 12.5523 5 12 5H7ZM15.7782 4.8284L19.3137 8.36393L13.7305 13.9472C13.3241 14.3536 12.7625 14.5655 12.1889 14.5289L9.76777 14.3743L9.61323 11.9532C9.57662 11.3797 9.78854 10.818 10.195 10.4116L15.7782 4.8284Z" fill="black"/>
</svg>
