<svg width="21" height="20" viewBox="0 0 21 20" fill="#0088ff" xmlns="http://www.w3.org/2000/svg">
<path fill-rule="evenodd" clip-rule="evenodd" d="M7.00377 0.00390625C8.26436 0.00390625 9.30699 1.10755 9.47889 2.54254L17.9625 11.026L10.1843 18.8042C9.01269 19.9758 7.1132 19.9758 5.94163 18.8042L1.69899 14.5616C0.52742 13.39 0.52742 11.4905 1.69899 10.3189L4.50377 7.51417V2.96112C4.50377 1.3279 5.62306 0.00390625 7.00377 0.00390625ZM7.50377 2.96112V4.51417L6.50377 5.51417V2.96112C6.50377 2.63448 6.72763 2.36968 7.00377 2.36968C7.27992 2.36968 7.50377 2.63448 7.50377 2.96112ZM7.50377 8.87553V7.3426L3.1132 11.7331C2.72268 12.1237 2.72268 12.7568 3.1132 13.1474L7.35584 17.39C7.74637 17.7805 8.37953 17.7805 8.77006 17.39L15.134 11.026L9.50379 5.39582V8.87553C9.50379 8.91853 9.50299 8.96133 9.50149 9.00393H7.49197C7.4997 8.96263 7.50377 8.91963 7.50377 8.87553Z" />
<path d="M15.6589 14.875C14.4873 16.0466 14.4873 17.9461 15.6589 19.1176C16.8305 20.2892 18.73 20.2892 19.9016 19.1176C21.0731 17.9461 21.0731 16.0466 19.9016 14.875L17.7802 12.7537L15.6589 14.875Z" />
</svg>
