<svg width="25" height="24" viewBox="0 0 25 24" fill="none" xmlns="http://www.w3.org/2000/svg">
<path d="M11.9001 23C13.8893 23 15.797 22.1914 17.2036 20.7522C18.6102 19.313 19.4004 17.361 19.4004 15.3256C19.4004 14.4394 19.1704 13.5891 18.9004 12.7981C17.2333 14.4834 15.9672 15.3256 15.1002 15.3256C19.0954 8.16279 16.9003 5.09302 10.9 1C11.4001 6.11628 8.10391 8.44316 6.76185 9.73553C5.66713 10.7892 4.90701 12.155 4.58004 13.656C4.25307 15.1569 4.37434 16.7238 4.92812 18.1534C5.4819 19.583 6.44265 20.8094 7.6858 21.6736C8.92895 22.5378 10.3972 22.9999 11.9001 23ZM12.6101 4.82186C15.8512 7.63581 15.8672 9.82251 13.3631 14.3115C12.6021 15.6755 13.5651 17.3721 15.1002 17.3721C15.7882 17.3721 16.4843 17.1674 17.2193 16.7633C17.0014 17.6054 16.5955 18.3842 16.0334 19.0385C15.4713 19.6928 14.7685 20.2047 13.9802 20.5338C13.192 20.8629 12.3398 21.0003 11.4908 20.9352C10.6418 20.87 9.81922 20.6041 9.08776 20.1583C8.35629 19.7126 7.73595 19.0992 7.27556 18.3664C6.81517 17.6336 6.52732 16.8015 6.43466 15.9355C6.342 15.0696 6.44706 14.1934 6.74159 13.3761C7.03611 12.5588 7.51204 11.8225 8.13191 11.2254C8.25792 11.1047 8.89694 10.5245 8.92494 10.4989C9.34896 10.11 9.69798 9.76521 10.043 9.38763C11.273 8.03898 12.1571 6.54298 12.6091 4.82186H12.6101Z" fill="#757575"/>
</svg>
