<svg width="24" height="24" viewBox="0 0 24 24" fill="none" xmlns="http://www.w3.org/2000/svg">
<path d="M12.0817 7.79996C11.251 7.79996 10.4389 8.04629 9.74826 8.50779C9.05757 8.96929 8.51925 9.62525 8.20136 10.3927C7.88347 11.1601 7.8003 12.0046 7.96235 12.8193C8.12441 13.6341 8.52442 14.3824 9.1118 14.9698C9.69918 15.5572 10.4476 15.9572 11.2623 16.1193C12.077 16.2813 12.9215 16.1981 13.6889 15.8803C14.4564 15.5624 15.1123 15.024 15.5738 14.3334C16.0353 13.6427 16.2817 12.8306 16.2817 12C16.2852 11.4474 16.1789 10.8997 15.9691 10.3886C15.7593 9.8774 15.45 9.41301 15.0593 9.0223C14.6686 8.63159 14.2042 8.32236 13.6931 8.11253C13.1819 7.9027 12.6342 7.79646 12.0817 7.79996ZM12.0817 13.8C11.7256 13.8 11.3776 13.6944 11.0816 13.4966C10.7856 13.2988 10.5549 13.0177 10.4187 12.6888C10.2824 12.3599 10.2468 11.998 10.3162 11.6488C10.3857 11.2996 10.5571 10.9789 10.8089 10.7272C11.0606 10.4754 11.3813 10.304 11.7305 10.2346C12.0797 10.1651 12.4416 10.2007 12.7705 10.337C13.0994 10.4732 13.3805 10.7039 13.5783 10.9999C13.7761 11.2959 13.8817 11.644 13.8817 12C13.886 12.2376 13.8425 12.4736 13.7536 12.694C13.6647 12.9143 13.5323 13.1145 13.3642 13.2825C13.1962 13.4506 12.996 13.583 12.7756 13.6719C12.5553 13.7608 12.3192 13.8044 12.0817 13.8Z" fill="#0D0D0D"/>
<path d="M20.3617 12.96C20.239 12.8913 20.1369 12.7911 20.0658 12.6699C19.9947 12.5486 19.9572 12.4105 19.9572 12.27C19.9572 12.1294 19.9947 11.9913 20.0658 11.8701C20.1369 11.7488 20.239 11.6486 20.3617 11.58C21.0917 11.1485 21.6214 10.4457 21.835 9.62506C22.0485 8.80441 21.9287 7.93258 21.5017 7.19997L21.0817 6.47997C20.1817 4.97997 18.2617 4.43997 16.7617 5.33997C16.2817 5.63997 15.6817 5.27997 15.6817 4.67997V4.49997C15.683 4.06625 15.5985 3.63656 15.4331 3.23561C15.2677 2.83467 15.0247 2.47037 14.718 2.16369C14.4113 1.857 14.047 1.61397 13.646 1.44858C13.2451 1.28319 12.8154 1.1987 12.3817 1.19997H11.7817C10.9088 1.20749 10.0738 1.55758 9.45655 2.17482C8.8393 2.79207 8.48921 3.62708 8.48169 4.49997V4.61997C8.48169 5.27997 7.76169 5.63997 7.22169 5.33997C6.85157 5.1264 6.44293 4.98802 6.0192 4.93275C5.59547 4.87749 5.165 4.90643 4.75249 5.01792C4.33998 5.12941 3.95353 5.32126 3.61534 5.58245C3.27714 5.84364 2.99384 6.16903 2.78169 6.53997L2.42169 7.19997C1.52169 8.69997 2.06169 10.68 3.56169 11.58C3.68435 11.6486 3.78649 11.7488 3.85758 11.8701C3.92867 11.9913 3.96614 12.1294 3.96614 12.27C3.96614 12.4105 3.92867 12.5486 3.85758 12.6699C3.78649 12.7911 3.68435 12.8913 3.56169 12.96C2.83166 13.3914 2.30202 14.0942 2.08843 14.9149C1.87483 15.7355 1.99464 16.6074 2.42169 17.34L2.84169 18C3.05384 18.3709 3.33714 18.6963 3.67534 18.9575C4.01353 19.2187 4.39998 19.4105 4.81249 19.522C5.225 19.6335 5.65547 19.6624 6.0792 19.6072C6.50293 19.5519 6.91157 19.4135 7.28169 19.2L7.46169 19.08C7.5687 19.0134 7.69155 18.9767 7.81752 18.9736C7.94349 18.9705 8.06799 19.0012 8.17814 19.0624C8.28829 19.1235 8.38008 19.2131 8.444 19.3217C8.50792 19.4303 8.54165 19.554 8.54169 19.68C8.53882 20.0905 8.61756 20.4975 8.77334 20.8773C8.92911 21.2572 9.15882 21.6022 9.44912 21.8925C9.73941 22.1828 10.0845 22.4125 10.4643 22.5683C10.8442 22.7241 11.2512 22.8028 11.6617 22.8H12.6817C13.4922 22.7965 14.2685 22.473 14.8416 21.8999C15.4147 21.3268 15.7382 20.5505 15.7417 19.74C15.7417 19.2 16.2817 18.9 16.7617 19.14L16.8817 19.2C18.3817 20.1 20.3017 19.56 21.2017 18.06L21.6217 17.34C22.0286 16.5906 22.1245 15.7114 21.8887 14.8919C21.653 14.0725 21.1045 13.3786 20.3617 12.96ZM19.1617 15.06C19.3323 15.1746 19.4563 15.3465 19.5113 15.5445C19.5663 15.7426 19.5487 15.9538 19.4617 16.14L19.0417 16.86C18.8617 17.22 18.3817 17.34 18.0217 17.16L17.9017 17.1C15.8617 15.9 13.2817 17.4 13.2817 19.74C13.2801 19.9145 13.2101 20.0815 13.0867 20.2049C12.9632 20.3284 12.7962 20.3984 12.6217 20.4H11.6017C11.5061 20.4037 11.4109 20.3876 11.3218 20.3527C11.2328 20.3179 11.1519 20.265 11.0843 20.1973C11.0167 20.1297 10.9638 20.0489 10.9289 19.9598C10.8941 19.8708 10.878 19.7755 10.8817 19.68C10.8813 19.1325 10.7369 18.5947 10.4629 18.1207C10.189 17.6466 9.79507 17.2531 9.32083 16.9795C8.84658 16.7059 8.3087 16.5619 7.76119 16.562C7.21369 16.5621 6.67584 16.7062 6.20169 16.98L6.02169 17.1C5.92773 17.1574 5.82315 17.1952 5.71421 17.2111C5.60528 17.2271 5.49425 17.2209 5.38778 17.1928C5.2813 17.1648 5.18159 17.1156 5.09463 17.0481C5.00766 16.9806 4.93523 16.8962 4.88169 16.8L4.52169 16.14C4.28169 15.78 4.46169 15.3 4.82169 15.06C6.92169 13.86 6.92169 10.74 4.82169 9.53997C4.65108 9.42533 4.52707 9.25347 4.47206 9.05542C4.41705 8.85737 4.43465 8.64618 4.52169 8.45997L4.88169 7.73997C4.93396 7.64249 5.00575 7.55684 5.09258 7.48833C5.17941 7.41983 5.27942 7.36995 5.38638 7.3418C5.49334 7.31365 5.60495 7.30784 5.71426 7.32473C5.82356 7.34162 5.92821 7.38085 6.02169 7.43997C8.18169 8.69997 10.8817 7.13997 10.8817 4.61997V4.49997C10.8875 4.26309 10.9842 4.03752 11.1517 3.86997C11.3192 3.70243 11.5448 3.60575 11.7817 3.59997H12.3817C12.6186 3.60575 12.8441 3.70243 13.0117 3.86997C13.1792 4.03752 13.2759 4.26309 13.2817 4.49997V4.67997C13.2817 7.07997 15.9217 8.63997 18.0217 7.43997C18.3817 7.25997 18.8617 7.37997 19.0417 7.73997L19.4617 8.45997C19.7017 8.81997 19.5217 9.29996 19.1617 9.53997C17.0617 10.74 17.0617 13.8 19.1617 15.06Z" fill="#0D0D0D"/>
</svg>
