<svg width="25" height="24" viewBox="0 0 25 24" fill="none" xmlns="http://www.w3.org/2000/svg">
<path d="M14.8826 21H6.23597C6.0672 21 5.90534 20.9138 5.786 20.7604C5.66665 20.6069 5.59961 20.3988 5.59961 20.1818V3.81818C5.59961 3.60119 5.66665 3.39308 5.786 3.23964C5.90534 3.0862 6.0672 3 6.23597 3H18.9632C19.132 3 19.2939 3.0862 19.4132 3.23964C19.5326 3.39308 19.5996 3.60119 19.5996 3.81818V14.9352C19.5999 15.0415 19.5839 15.1467 19.5525 15.245C19.5211 15.3433 19.4749 15.4326 19.4167 15.508L15.328 20.7648C15.2694 20.8397 15.1999 20.8991 15.1235 20.9394C15.0471 20.9798 14.9652 21.0004 14.8826 21Z" stroke="#757575" stroke-width="2" stroke-linecap="round" stroke-linejoin="round"/>
<path d="M19.5996 14H13.5996V21" stroke="#757575" stroke-width="2" stroke-linecap="round" stroke-linejoin="round"/>
<rect x="11.5996" y="6" width="6" height="2" rx="1" fill="#757575"/>
<rect x="7.59961" y="6" width="3" height="2" rx="1" fill="#757575"/>
<rect x="7.59961" y="9" width="5" height="2" rx="1" fill="#757575"/>
<rect x="13.5996" y="9" width="4" height="2" rx="1" fill="#757575"/>
<rect x="7.59961" y="12" width="4" height="2" rx="1" fill="#757575"/>
</svg>
