 <svg width="21" height="20" viewBox="0 0 21 20" fill="#0088ff" xmlns="http://www.w3.org/2000/svg">
<path d="M1.30221 18.8982C2.00021 19.5972 2.99821 19.9662 4.18921 19.9662C5.93121 19.9662 8.04421 19.1882 10.2012 17.8392C12.3572 19.1892 14.4712 19.9662 16.2132 19.9662C17.4032 19.9662 18.4012 19.5972 19.1002 18.8982C20.3692 17.6292 20.5112 15.4852 19.5012 12.8592C19.1432 11.9272 18.6472 10.9642 18.0442 10.0002C18.62 9.09587 19.1079 8.1385 19.5012 7.14118C20.5112 4.51518 20.3682 2.37018 19.1002 1.10218C18.4022 0.40318 17.4042 0.0341797 16.2132 0.0341797C14.4712 0.0341797 12.3582 0.81218 10.2012 2.16118C8.04521 0.81118 5.93121 0.0341797 4.18921 0.0341797C2.99921 0.0341797 2.00121 0.40318 1.30221 1.10218C0.0332128 2.37118 -0.109787 4.51518 0.900213 7.14118C1.25921 8.07318 1.75421 9.03618 2.35721 10.0002C1.78139 10.9045 1.2935 11.8619 0.900213 12.8592C-0.109787 15.4852 0.0332128 17.6292 1.30221 18.8982ZM17.6332 13.5772C18.3222 15.3672 18.3412 16.8282 17.6852 17.4842C17.3652 17.8042 16.8702 17.9662 16.2122 17.9662C15.0452 17.9662 13.5662 17.4632 12.0042 16.5862C13.7956 15.2015 15.4029 13.5938 16.7872 11.8022C17.1232 12.4032 17.4102 12.9982 17.6332 13.5772ZM10.2002 15.4172C9.15624 14.6708 8.17498 13.8403 7.26621 12.9342C6.35556 12.0248 5.51953 11.0436 4.76621 10.0002C6.27184 7.91181 8.10713 6.08225 10.2002 4.58318C11.2442 5.32958 12.2254 6.16001 13.1342 7.06618C14.0449 7.97556 14.8809 8.95673 15.6342 10.0002C14.1286 12.0886 12.2933 13.9181 10.2002 15.4172ZM16.2122 2.03418C16.8692 2.03418 17.3642 2.19618 17.6852 2.51618C18.3412 3.17218 18.3232 4.63318 17.6332 6.42318C17.4102 7.00218 17.1232 7.59718 16.7872 8.19818C15.4042 6.40535 13.7968 4.79753 12.0042 3.41418C13.5662 2.53818 15.0452 2.03418 16.2122 2.03418ZM2.76721 6.42318C2.07821 4.63318 2.05921 3.17218 2.71521 2.51618C3.03521 2.19618 3.53021 2.03418 4.18821 2.03418C5.35521 2.03418 6.83421 2.53718 8.39621 3.41418C6.60367 4.79753 4.99619 6.40535 3.61321 8.19818C3.28977 7.62717 3.00706 7.03403 2.76721 6.42318ZM2.76721 13.5772C2.99021 12.9982 3.27721 12.4032 3.61321 11.8022C4.99619 13.595 6.60367 15.2028 8.39621 16.5862C6.83321 17.4632 5.35521 17.9662 4.18821 17.9662C3.53121 17.9662 3.03621 17.8042 2.71521 17.4842C2.05921 16.8282 2.07821 15.3672 2.76721 13.5772Z" />
<path d="M10.2002 12.5742C11.6218 12.5742 12.7742 11.4218 12.7742 10.0002C12.7742 8.5786 11.6218 7.42618 10.2002 7.42618C8.77863 7.42618 7.62621 8.5786 7.62621 10.0002C7.62621 11.4218 8.77863 12.5742 10.2002 12.5742Z" 
      />
</svg>
